<?xml version="1.0" encoding="utf-8"?>
<!-- Generator: Adobe Illustrator 24.0.2, SVG Export Plug-In . SVG Version: 6.00 Build 0)  -->
<svg version="1.1" id="Layer_1" xmlns="http://www.w3.org/2000/svg" xmlns:xlink="http://www.w3.org/1999/xlink" x="0px" y="0px"
	 viewBox="0 0 801.13 179.957" enable-background="new 0 0 801.13 179.957" xml:space="preserve">
<g>
	<g>
		<g>
			<g>
				<linearGradient id="SVGID_1_" gradientUnits="userSpaceOnUse" x1="124.7753" y1="139.6109" x2="54.937" y2="28.0174">
					<stop  offset="0" style="stop-color:#3C5891"/>
					<stop  offset="0.5054" style="stop-color:#0093CF"/>
					<stop  offset="0.6219" style="stop-color:#058ECA"/>
					<stop  offset="0.7585" style="stop-color:#1281BC"/>
					<stop  offset="0.9047" style="stop-color:#296AA4"/>
					<stop  offset="1" style="stop-color:#3C5891"/>
				</linearGradient>
				<path fill="url(#SVGID_1_)" d="M156.91,70.949l-15.269,9.692c0.228,1.993,0.346,4.02,0.346,6.075
					c0,19.452-10.528,36.435-26.189,45.594c-10.475,16.463-24.14,29.508-39.735,37.516c-1.965,1.009-3.918,1.866-5.857,2.6
					c3.212,0.392,6.476,0.618,9.794,0.618c44.183,0,80-35.817,80-80C160,85.379,158.922,77.966,156.91,70.949z"/>
				<linearGradient id="SVGID_2_" gradientUnits="userSpaceOnUse" x1="104.8632" y1="152.0724" x2="35.0249" y2="40.4789">
					<stop  offset="0" style="stop-color:#3C5891"/>
					<stop  offset="0.5054" style="stop-color:#0093CF"/>
					<stop  offset="0.6219" style="stop-color:#058ECA"/>
					<stop  offset="0.7585" style="stop-color:#1281BC"/>
					<stop  offset="0.9047" style="stop-color:#296AA4"/>
					<stop  offset="1" style="stop-color:#3C5891"/>
				</linearGradient>
				<path fill="url(#SVGID_2_)" d="M49.639,167.063c10.75-1.548,25.322-8.109,41.565-27.605c-0.669,0.025-1.338,0.051-2.013,0.051
					c-10.204,0-19.731-2.895-27.806-7.907l27.667-37.081l4.434,5.681l15.981-31.178l-35.15,5.127l5.219,7.436L37.833,98.997
					c-0.939-3.941-1.436-8.053-1.436-12.282c0-29.158,23.637-52.794,52.794-52.794c7.012,0,13.704,1.367,19.826,3.849l2.611-2.971
					l0.023-0.001c-1.865-7.249-6.604-15.377-12.227-19.328l-0.038-0.061C93.179,13.863,86.685,13.043,80,13.043
					c-44.183,0-80,35.817-80,80C0,126.476,20.516,155.105,49.639,167.063z"/>
			</g>
			<path fill="#0C94D2" d="M65.965,10.719c0,0,46.559-21.339,55.704,34.365c0,0,9.7,47.39-25.219,92.286
				s-64.018,31.594-68.175,29.099c0,0,18.106,21.709,49.053,5.82c27.741-14.243,47.056-42.65,56.17-71.862
				c8.594-27.544,12.111-62.987-6.84-87.214C126.657,13.213,104.764-14.777,65.965,10.719z"/>
			
				<linearGradient id="SVGID_3_" gradientUnits="userSpaceOnUse" x1="126.1084" y1="106.0293" x2="111.8238" y2="-10.3062" gradientTransform="matrix(0.9986 -0.0523 0.0523 0.9986 -3.157 39.385)">
				<stop  offset="0" style="stop-color:#0091D1"/>
				<stop  offset="0.172" style="stop-color:#62A7DB;stop-opacity:0.9763"/>
				<stop  offset="0.2053" style="stop-color:#6CADDD;stop-opacity:0.9545"/>
				<stop  offset="0.2624" style="stop-color:#88BCE4;stop-opacity:0.917"/>
				<stop  offset="0.3364" style="stop-color:#B5D5EE;stop-opacity:0.8685"/>
				<stop  offset="0.4237" style="stop-color:#F2F8FC;stop-opacity:0.8113"/>
				<stop  offset="0.4409" style="stop-color:#FFFFFF;stop-opacity:0.8"/>
				<stop  offset="0.477" style="stop-color:#F3F8FC;stop-opacity:0.8227"/>
				<stop  offset="0.5419" style="stop-color:#D4E6F5;stop-opacity:0.8635"/>
				<stop  offset="0.6273" style="stop-color:#A2CAEA;stop-opacity:0.9172"/>
				<stop  offset="0.6828" style="stop-color:#7EB5E2;stop-opacity:0.9521"/>
				<stop  offset="0.8914" style="stop-color:#2C9ED8;stop-opacity:0.9836"/>
				<stop  offset="1" style="stop-color:#0092D2"/>
			</linearGradient>
			<path fill="url(#SVGID_3_)" d="M117.373,21.584c0,0,27.394,42.597-15.058,115.126l8.039,5.129c0,0,47.907-60.234,19.565-120.912
				L117.373,21.584z"/>
		</g>
	</g>
	<g>
		<g>
			<g>
				<path fill="#187CB7" d="M200.618,102.246c-5.475-1.803-10.271-4.701-14.389-8.699c-4.12-3.996-7.359-9.258-9.717-15.788
					c-2.361-6.529-3.541-14.522-3.541-23.976c0-9.452,1.179-17.444,3.541-23.976c2.358-6.527,5.598-11.791,9.717-15.788
					c4.117-3.995,8.913-6.894,14.389-8.699c5.473-1.802,11.323-2.704,17.552-2.704h39.172v17.543h-36.159
					c-3.315,0-6.429,0.415-9.341,1.242c-2.914,0.829-5.55,2.193-7.91,4.094c-2.361,1.9-4.369,4.436-6.026,7.601
					c-1.657,3.169-2.787,7.141-3.39,11.915h62.826v17.543h-62.826c0.603,4.777,1.733,8.749,3.39,11.915
					c1.657,3.168,3.666,5.701,6.026,7.601c2.359,1.902,4.996,3.266,7.91,4.094c2.912,0.828,6.026,1.242,9.341,1.242h36.159v17.543
					h-39.172C211.941,104.95,206.091,104.05,200.618,102.246z"/>
				<path fill="#187CB7" d="M273.913,2.616h21.092v61.4c0,4.484,0.702,8.212,2.109,11.184c1.406,2.974,3.338,5.361,5.801,7.162
					c2.46,1.805,5.348,3.095,8.663,3.875c3.315,0.781,6.829,1.169,10.546,1.169h27.119v17.543h-27.119
					c-6.629,0-12.858-0.681-18.682-2.047c-5.826-1.363-10.923-3.655-15.292-6.87c-4.37-3.216-7.835-7.431-10.396-12.646
					c-2.561-5.212-3.842-11.67-3.842-19.37V2.616z"/>
				<path fill="#187CB7" d="M362.048,87.407h54.991c3.917,0,7.281-0.899,10.095-2.704c2.81-1.803,4.218-5.044,4.218-9.722
					c0-4.58-1.408-7.796-4.218-9.648c-2.813-1.85-6.177-2.778-10.095-2.778h-25.612c-4.922,0-9.393-0.511-13.409-1.535
					c-4.019-1.024-7.434-2.705-10.245-5.044c-2.813-2.338-4.971-5.432-6.478-9.283c-1.507-3.849-2.26-8.553-2.26-14.108
					c0-5.651,0.753-10.402,2.26-14.254c1.507-3.849,3.665-6.944,6.478-9.283c2.811-2.34,6.227-3.996,10.245-4.971
					c4.016-0.974,8.486-1.462,13.409-1.462h58.004v17.543H394.44c-3.917,0-7.284,0.902-10.095,2.704
					c-2.813,1.805-4.218,5.044-4.218,9.722c0,4.583,1.405,7.798,4.218,9.648c2.811,1.853,6.177,2.778,10.095,2.778h25.612
					c4.92,0,9.391,0.511,13.409,1.535c4.016,1.024,7.432,2.705,10.245,5.044c2.81,2.338,4.971,5.434,6.478,9.283
					c1.507,3.852,2.26,8.553,2.26,14.108c0,5.752-0.753,10.526-2.26,14.326c-1.507,3.802-3.668,6.871-6.478,9.21
					c-2.813,2.34-6.229,3.997-10.245,4.971c-4.018,0.975-8.489,1.462-13.409,1.462h-58.004V87.407z"/>
				<path fill="#187CB7" d="M468.262,2.616h27.119l42.186,74.411V2.616h21.092V104.95H531.54l-42.186-74.411v74.411h-21.092V2.616z"
					/>
				<path fill="#187CB7" d="M599.861,102.246c-5.475-1.803-10.27-4.701-14.388-8.699c-4.12-3.996-7.358-9.258-9.718-15.788
					c-2.36-6.529-3.54-14.522-3.54-23.976c0-9.452,1.18-17.444,3.54-23.976c2.36-6.527,5.598-11.791,9.718-15.788
					c4.118-3.995,8.913-6.894,14.388-8.699c5.473-1.802,11.323-2.704,17.552-2.704h39.172v17.543h-36.159
					c-3.315,0-6.43,0.415-9.341,1.242c-2.915,0.829-5.551,2.193-7.91,4.094c-2.361,1.9-4.368,4.436-6.026,7.601
					c-1.657,3.169-2.787,7.141-3.39,11.915h62.826v17.543H593.76c0.603,4.777,1.733,8.749,3.39,11.915
					c1.658,3.168,3.665,5.701,6.026,7.601c2.358,1.902,4.995,3.266,7.91,4.094c2.912,0.828,6.026,1.242,9.341,1.242h36.159v17.543
					h-39.172C611.184,104.95,605.334,104.05,599.861,102.246z"/>
				<path fill="#187CB7" d="M694.021,65.869v38.99h-22.464V2.321h51.572c8.013,0,14.5,0.461,19.458,1.382
					c4.955,0.921,10.175,3.199,15.66,6.83c5.483,3.635,8.226,10.415,8.226,20.34c0,15.453-6.697,25.431-20.09,29.932
					c6.855,2.26,11.759,5.469,14.713,9.628c2.951,4.159,4.429,10.45,4.429,18.868c0,4.212,0.131,7.037,0.396,8.474
					c0.262,1.439,0.974,3.799,2.136,7.085h-25.153c-0.633-2.054-1.028-3.543-1.187-4.469c-0.157-0.927-0.633-5.188-1.423-12.792
					c-0.792-7.602-3.219-13.124-7.277-16.566c-4.061-3.441-11.049-5.164-20.962-5.164H694.021z M694.021,47.604h31.481
					c5.694,0,9.808-1.075,12.338-3.224c2.532-2.15,3.797-5.731,3.797-10.746c0-4.705-1.242-8.059-3.718-10.053
					c-2.479-1.996-6.619-2.994-12.418-2.994h-31.481V47.604z"/>
			</g>
			<g>
				<defs>
					<path id="SVGID_4_" d="M142.083,105.924c0,0,200.378-55.065,379.162-62.862c185.823-8.104,235.791,20.903,244.07,28.263
						l11.962,27.033c0,0,55.589,15.005-2.957,17.553s-120.64,11.041-204.615,10.475s-85.158-3.114-157.897-4.53
						c-72.739-1.416-110.587-1.982-152.574-5.945c-41.988-3.964-52.041-3.114-74.513-9.626s-37.257-13.306-37.848-16.137
						C146.281,87.318,142.083,105.924,142.083,105.924z"/>
				</defs>
				<clipPath id="SVGID_5_">
					<use xlink:href="#SVGID_4_"  overflow="visible"/>
				</clipPath>
				<g clip-path="url(#SVGID_5_)">
					<g>
						<path fill="#005386" d="M200.618,102.246c-5.475-1.803-10.271-4.701-14.389-8.699c-4.12-3.996-7.359-9.258-9.717-15.788
							c-2.361-6.529-3.541-14.522-3.541-23.976c0-9.452,1.179-17.444,3.541-23.976c2.358-6.527,5.598-11.791,9.717-15.788
							c4.117-3.995,8.913-6.894,14.389-8.699c5.473-1.802,11.323-2.704,17.552-2.704h39.172v17.543h-36.159
							c-3.315,0-6.429,0.415-9.341,1.242c-2.914,0.829-5.55,2.193-7.91,4.094c-2.361,1.9-4.369,4.436-6.026,7.601
							c-1.657,3.169-2.787,7.141-3.39,11.915h62.826v17.543h-62.826c0.603,4.777,1.733,8.749,3.39,11.915
							c1.657,3.168,3.666,5.701,6.026,7.601c2.359,1.902,4.996,3.266,7.91,4.094c2.912,0.828,6.026,1.242,9.341,1.242h36.159v17.543
							h-39.172C211.941,104.95,206.091,104.05,200.618,102.246z"/>
						<path fill="#005386" d="M273.913,2.616h21.092v61.4c0,4.484,0.702,8.212,2.109,11.184c1.406,2.974,3.338,5.361,5.801,7.162
							c2.46,1.805,5.348,3.095,8.663,3.875c3.315,0.781,6.829,1.169,10.546,1.169h27.119v17.543h-27.119
							c-6.629,0-12.858-0.681-18.682-2.047c-5.826-1.363-10.923-3.655-15.292-6.87c-4.37-3.216-7.835-7.431-10.396-12.646
							c-2.561-5.212-3.842-11.67-3.842-19.37V2.616z"/>
						<path fill="#005386" d="M362.048,87.407h54.991c3.917,0,7.281-0.899,10.095-2.704c2.81-1.803,4.218-5.044,4.218-9.722
							c0-4.58-1.408-7.796-4.218-9.648c-2.813-1.85-6.177-2.778-10.095-2.778h-25.612c-4.922,0-9.393-0.511-13.409-1.535
							c-4.019-1.024-7.434-2.705-10.245-5.044c-2.813-2.338-4.971-5.432-6.478-9.283c-1.507-3.849-2.26-8.553-2.26-14.108
							c0-5.651,0.753-10.402,2.26-14.254c1.507-3.849,3.665-6.944,6.478-9.283c2.811-2.34,6.227-3.996,10.245-4.971
							c4.016-0.974,8.486-1.462,13.409-1.462h58.004v17.543H394.44c-3.917,0-7.284,0.902-10.095,2.704
							c-2.813,1.805-4.218,5.044-4.218,9.722c0,4.583,1.405,7.798,4.218,9.648c2.811,1.853,6.177,2.778,10.095,2.778h25.612
							c4.92,0,9.391,0.511,13.409,1.535c4.016,1.024,7.432,2.705,10.245,5.044c2.81,2.338,4.971,5.434,6.478,9.283
							c1.507,3.852,2.26,8.553,2.26,14.108c0,5.752-0.753,10.526-2.26,14.326c-1.507,3.802-3.668,6.871-6.478,9.21
							c-2.813,2.34-6.229,3.997-10.245,4.971c-4.018,0.975-8.489,1.462-13.409,1.462h-58.004V87.407z"/>
						<path fill="#005386" d="M468.262,2.616h27.119l42.186,74.411V2.616h21.092V104.95H531.54l-42.186-74.411v74.411h-21.092V2.616
							z"/>
						<path fill="#005386" d="M599.861,102.246c-5.475-1.803-10.27-4.701-14.388-8.699c-4.12-3.996-7.358-9.258-9.718-15.788
							c-2.36-6.529-3.54-14.522-3.54-23.976c0-9.452,1.18-17.444,3.54-23.976c2.36-6.527,5.598-11.791,9.718-15.788
							c4.118-3.995,8.913-6.894,14.388-8.699c5.473-1.802,11.323-2.704,17.552-2.704h39.172v17.543h-36.159
							c-3.315,0-6.43,0.415-9.341,1.242c-2.915,0.829-5.551,2.193-7.91,4.094c-2.361,1.9-4.368,4.436-6.026,7.601
							c-1.657,3.169-2.787,7.141-3.39,11.915h62.826v17.543H593.76c0.603,4.777,1.733,8.749,3.39,11.915
							c1.658,3.168,3.665,5.701,6.026,7.601c2.358,1.902,4.995,3.266,7.91,4.094c2.912,0.828,6.026,1.242,9.341,1.242h36.159v17.543
							h-39.172C611.184,104.95,605.334,104.05,599.861,102.246z"/>
					</g>
					<g>
						<path fill="#005386" d="M694.021,65.869v38.99h-22.464V2.321h51.572c8.013,0,14.5,0.461,19.458,1.382
							c4.955,0.921,10.175,3.199,15.66,6.83c5.483,3.635,8.226,10.415,8.226,20.34c0,15.453-6.697,25.431-20.09,29.932
							c6.855,2.26,11.759,5.469,14.713,9.628c2.951,4.159,4.429,10.45,4.429,18.868c0,4.212,0.131,7.037,0.396,8.474
							c0.262,1.439,0.974,3.799,2.136,7.085h-25.153c-0.633-2.054-1.028-3.543-1.187-4.469c-0.157-0.927-0.633-5.188-1.423-12.792
							c-0.792-7.602-3.219-13.124-7.277-16.566c-4.061-3.441-11.049-5.164-20.962-5.164H694.021z M694.021,47.604h31.481
							c5.694,0,9.808-1.075,12.338-3.224c2.532-2.15,3.797-5.731,3.797-10.746c0-4.705-1.242-8.059-3.718-10.053
							c-2.479-1.996-6.619-2.994-12.418-2.994h-31.481V47.604z"/>
					</g>
				</g>
			</g>
		</g>
		<g>
			<path fill="#005386" d="M210.52,128.601h-14.36v38.673h-5.86v-38.673h-14.329v-4.674h34.549V128.601z"/>
			<path fill="#005386" d="M226.997,167.87c-4.5,0-8.162-1.433-10.985-4.301c-2.822-2.868-4.234-6.705-4.234-11.508v-1.012
				c0-3.195,0.629-6.048,1.887-8.561c1.258-2.51,3.017-4.476,5.277-5.893c2.26-1.42,4.71-2.129,7.349-2.129
				c4.316,0,7.671,1.378,10.063,4.138c2.394,2.759,3.59,6.709,3.59,11.85v2.292h-22.49c0.082,3.176,1.038,5.741,2.869,7.695
				c1.831,1.956,4.157,2.934,6.981,2.934c2.004,0,3.702-0.397,5.092-1.191c1.391-0.794,2.609-1.845,3.652-3.156l3.467,2.62
				C236.733,165.795,232.56,167.87,226.997,167.87z M226.291,138.989c-2.292,0-4.215,0.809-5.769,2.428
				c-1.554,1.618-2.515,3.885-2.884,6.803h16.63v-0.417c-0.164-2.798-0.942-4.966-2.332-6.506
				C230.545,139.759,228.663,138.989,226.291,138.989z"/>
			<path fill="#005386" d="M259.826,163.374c2.025,0,3.794-0.595,5.308-1.786c1.514-1.191,2.352-2.681,2.516-4.467h5.369
				c-0.102,1.847-0.756,3.603-1.963,5.27c-1.207,1.669-2.818,2.999-4.833,3.989c-2.015,0.992-4.147,1.49-6.397,1.49
				c-4.52,0-8.116-1.464-10.785-4.391c-2.669-2.929-4.003-6.932-4.003-12.014v-0.923c0-3.136,0.592-5.926,1.779-8.367
				c1.186-2.441,2.888-4.336,5.108-5.686s4.843-2.024,7.871-2.024c3.722,0,6.816,1.082,9.281,3.246
				c2.465,2.164,3.779,4.971,3.943,8.423h-5.369c-0.164-2.083-0.978-3.795-2.44-5.134c-1.462-1.339-3.267-2.011-5.415-2.011
				c-2.884,0-5.119,1.008-6.704,3.023c-1.586,2.015-2.378,4.927-2.378,8.738v1.043c0,3.712,0.788,6.57,2.362,8.574
				C254.65,162.371,256.9,163.374,259.826,163.374z"/>
			<path fill="#005386" d="M285.078,138.961c2.516-2.997,5.789-4.495,9.818-4.495c7.017,0,10.556,3.841,10.616,11.521v21.288h-5.676
				v-21.316c-0.021-2.323-0.568-4.039-1.642-5.152c-1.073-1.11-2.746-1.666-5.016-1.666c-1.841,0-3.457,0.475-4.849,1.429
				c-1.391,0.953-2.475,2.203-3.253,3.752v22.954h-5.676v-45.729h5.676V138.961z"/>
			<path fill="#005386" d="M319.382,135.061l0.183,4.048c2.537-3.095,5.85-4.644,9.941-4.644c7.017,0,10.556,3.841,10.616,11.521
				v21.288h-5.676v-21.316c-0.021-2.323-0.568-4.039-1.642-5.152c-1.073-1.11-2.746-1.666-5.016-1.666
				c-1.841,0-3.457,0.475-4.849,1.429c-1.391,0.953-2.475,2.203-3.253,3.752v22.954h-5.676v-32.213H319.382z"/>
			<path fill="#005386" d="M347.179,150.87c0-3.156,0.639-5.994,1.918-8.515c1.278-2.521,3.057-4.467,5.339-5.835
				c2.28-1.37,4.883-2.055,7.809-2.055c4.52,0,8.176,1.518,10.968,4.554c2.793,3.036,4.189,7.076,4.189,12.118v0.386
				c0,3.136-0.619,5.95-1.857,8.441s-3.006,4.432-5.308,5.821c-2.301,1.389-4.945,2.083-7.931,2.083
				c-4.5,0-8.146-1.518-10.938-4.554c-2.793-3.038-4.189-7.056-4.189-12.059V150.87z M352.887,151.524
				c0,3.573,0.854,6.441,2.563,8.605c1.707,2.164,3.993,3.245,6.857,3.245c2.884,0,5.176-1.097,6.873-3.289
				c1.698-2.194,2.547-5.265,2.547-9.215c0-3.533-0.864-6.397-2.593-8.589c-1.729-2.194-4.025-3.291-6.887-3.291
				c-2.803,0-5.063,1.084-6.782,3.246C353.745,144.399,352.887,147.496,352.887,151.524z"/>
			<path fill="#005386" d="M390.688,167.274h-5.676v-45.729h5.676V167.274z"/>
			<path fill="#005386" d="M398.267,150.87c0-3.156,0.639-5.994,1.919-8.515c1.278-2.521,3.057-4.467,5.339-5.835
				c2.28-1.37,4.883-2.055,7.809-2.055c4.52,0,8.176,1.518,10.968,4.554c2.793,3.036,4.189,7.076,4.189,12.118v0.386
				c0,3.136-0.619,5.95-1.857,8.441s-3.006,4.432-5.308,5.821c-2.301,1.389-4.945,2.083-7.931,2.083
				c-4.5,0-8.146-1.518-10.938-4.554c-2.793-3.038-4.189-7.056-4.189-12.059V150.87z M403.974,151.524
				c0,3.573,0.854,6.441,2.563,8.605c1.707,2.164,3.993,3.245,6.857,3.245c2.884,0,5.176-1.097,6.873-3.289
				c1.698-2.194,2.547-5.265,2.547-9.215c0-3.533-0.864-6.397-2.593-8.589c-1.729-2.194-4.025-3.291-6.887-3.291
				c-2.803,0-5.063,1.084-6.782,3.246C404.832,144.399,403.974,147.496,403.974,151.524z"/>
			<path fill="#005386" d="M434.257,150.898c0-5.021,1.197-9.015,3.59-11.983c2.393-2.966,5.563-4.449,9.512-4.449
				c4.051,0,7.21,1.389,9.481,4.168l0.275-3.573h5.186V166.5c0,4.168-1.273,7.453-3.82,9.854c-2.547,2.401-5.968,3.603-10.264,3.603
				c-2.393,0-4.735-0.497-7.026-1.49c-2.292-0.992-4.04-2.351-5.248-4.079l2.946-3.304c2.434,2.918,5.41,4.378,8.928,4.378
				c2.761,0,4.915-0.755,6.459-2.264c1.544-1.507,2.316-3.632,2.316-6.371v-2.768c-2.27,2.541-5.369,3.81-9.297,3.81
				c-3.886,0-7.031-1.518-9.434-4.554C435.459,160.277,434.257,156.14,434.257,150.898z M439.965,151.524
				c0,3.632,0.767,6.487,2.301,8.561s3.682,3.11,6.443,3.11c3.58,0,6.208-1.579,7.885-4.733v-14.709
				c-1.739-3.075-4.346-4.613-7.824-4.613c-2.761,0-4.92,1.04-6.475,3.126C440.741,144.351,439.965,147.437,439.965,151.524z"/>
			<path fill="#005386" d="M470.892,126.516c0-0.892,0.281-1.647,0.844-2.262c0.562-0.615,1.396-0.923,2.501-0.923
				s1.943,0.308,2.516,0.923c0.572,0.615,0.859,1.37,0.859,2.262c0,0.894-0.287,1.638-0.859,2.233
				c-0.573,0.595-1.412,0.892-2.516,0.892s-1.939-0.297-2.501-0.892C471.173,128.154,470.892,127.41,470.892,126.516z
				 M477.029,167.274h-5.676v-32.213h5.676V167.274z"/>
			<path fill="#005386" d="M499.888,167.87c-4.5,0-8.162-1.433-10.985-4.301c-2.822-2.868-4.234-6.705-4.234-11.508v-1.012
				c0-3.195,0.629-6.048,1.887-8.561c1.258-2.51,3.017-4.476,5.277-5.893c2.26-1.42,4.71-2.129,7.349-2.129
				c4.316,0,7.671,1.378,10.063,4.138c2.394,2.759,3.59,6.709,3.59,11.85v2.292h-22.49c0.082,3.176,1.038,5.741,2.869,7.695
				c1.831,1.956,4.157,2.934,6.981,2.934c2.004,0,3.702-0.397,5.092-1.191c1.391-0.794,2.609-1.845,3.652-3.156l3.467,2.62
				C509.624,165.795,505.451,167.87,499.888,167.87z M499.182,138.989c-2.292,0-4.215,0.809-5.769,2.428s-2.515,3.885-2.884,6.803
				h16.63v-0.417c-0.164-2.798-0.942-4.966-2.332-6.506C503.436,139.759,501.555,138.989,499.182,138.989z"/>
			<path fill="#005386" d="M538.732,158.729c0-1.488-0.578-2.644-1.733-3.468c-1.156-0.822-3.172-1.533-6.045-2.129
				s-5.154-1.309-6.841-2.144c-1.688-0.833-2.936-1.826-3.744-2.977c-0.808-1.149-1.212-2.519-1.212-4.107
				c0-2.639,1.15-4.873,3.451-6.698c2.301-1.828,5.241-2.739,8.822-2.739c3.763,0,6.815,0.942,9.159,2.827
				c2.341,1.887,3.512,4.299,3.512,7.235h-5.706c0-1.507-0.66-2.807-1.979-3.9c-1.319-1.091-2.982-1.638-4.986-1.638
				c-2.067,0-3.682,0.438-4.849,1.311c-1.165,0.875-1.749,2.015-1.749,3.424c0,1.33,0.542,2.332,1.626,3.008
				c1.083,0.674,3.042,1.32,5.876,1.935c2.833,0.615,5.128,1.35,6.888,2.203c1.759,0.853,3.063,1.88,3.912,3.082
				c0.849,1.2,1.273,2.663,1.273,4.391c0,2.879-1.187,5.185-3.559,6.923c-2.374,1.736-5.452,2.604-9.236,2.604
				c-2.659,0-5.012-0.456-7.057-1.37c-2.046-0.912-3.646-2.188-4.801-3.826c-1.155-1.638-1.733-3.409-1.733-5.313h5.676
				c0.102,1.845,0.864,3.309,2.286,4.391c1.422,1.082,3.299,1.623,5.63,1.623c2.148,0,3.871-0.421,5.17-1.265
				C538.083,161.265,538.732,160.14,538.732,158.729z"/>
			<path fill="#005386" d="M574.139,150.305v16.969h-5.89v-43.348h16.477c4.888,0,8.718,1.211,11.491,3.632
				c2.772,2.421,4.157,5.627,4.157,9.617c0,4.207-1.355,7.449-4.065,9.721c-2.711,2.273-6.593,3.409-11.645,3.409H574.139z
				 M574.139,145.629h10.586c3.149,0,5.563-0.72,7.241-2.161c1.677-1.442,2.515-3.525,2.515-6.249c0-2.585-0.838-4.652-2.515-6.203
				c-1.678-1.551-3.979-2.356-6.904-2.414h-10.923V145.629z"/>
			<path fill="#005386" d="M618.414,159.802l8.222-24.74h5.799l-11.904,32.213h-4.327l-12.027-32.213h5.799L618.414,159.802z"/>
			<path fill="#005386" d="M645.6,127.259v7.802h6.197v4.258H645.6v20.001c0,1.293,0.276,2.262,0.829,2.907
				c0.551,0.646,1.493,0.968,2.823,0.968c0.654,0,1.553-0.12,2.7-0.358v4.441c-1.495,0.395-2.947,0.591-4.359,0.591
				c-2.537,0-4.45-0.744-5.738-2.233c-1.288-1.488-1.933-3.601-1.933-6.341v-19.977h-6.044v-4.258h6.044v-7.802H645.6z"/>
			<path fill="#005386" d="M680.792,162.6h21.172v4.674h-27.093v-43.348h5.921V162.6z"/>
			<path fill="#005386" d="M715.496,127.259v7.802h6.197v4.258h-6.197v20.001c0,1.293,0.276,2.262,0.829,2.907
				c0.551,0.646,1.493,0.968,2.823,0.968c0.654,0,1.553-0.12,2.7-0.358v4.441c-1.495,0.395-2.947,0.591-4.358,0.591
				c-2.536,0-4.448-0.744-5.736-2.233c-1.288-1.488-1.933-3.601-1.933-6.341v-19.977h-6.044v-4.258h6.044v-7.802H715.496z"/>
			<path fill="#005386" d="M726.942,150.898c0-4.94,1.207-8.916,3.619-11.922c2.414-3.008,5.575-4.511,9.481-4.511
				c3.886,0,6.966,1.289,9.236,3.869v-16.79h5.676v45.729h-5.215l-0.276-3.453c-2.27,2.698-5.431,4.048-9.481,4.048
				c-3.846,0-6.979-1.529-9.405-4.585c-2.423-3.056-3.635-7.045-3.635-11.968V150.898z M732.617,151.524
				c0,3.653,0.778,6.511,2.331,8.574c1.555,2.066,3.702,3.097,6.444,3.097c3.599,0,6.229-1.568,7.885-4.705v-14.797
				c-1.697-3.036-4.307-4.554-7.825-4.554c-2.781,0-4.95,1.04-6.505,3.126C733.395,144.351,732.617,147.437,732.617,151.524z"/>
			<path fill="#005386" d="M763.882,164.386c0-0.953,0.29-1.747,0.874-2.382c0.582-0.635,1.457-0.953,2.623-0.953
				c1.164,0,2.05,0.318,2.652,0.953c0.605,0.635,0.906,1.429,0.906,2.382c0,0.914-0.301,1.677-0.906,2.292
				c-0.602,0.615-1.488,0.923-2.652,0.923c-1.167,0-2.041-0.308-2.623-0.923C764.172,166.064,763.882,165.3,763.882,164.386z"/>
		</g>
	</g>
</g>
</svg>
